<svg xmlns="http://www.w3.org/2000/svg" xmlns:v="https://svgstorm.com"
viewBox = "0 0 1200 1351"
width="1200"
height="1351">
<g fill="None" fill-opacity="0.0" stroke="#000000" stroke-opacity="0.00" stroke-width="0.3"><path d="
M 0.00 376.00 
C 6.60 325.75 49.91 296.99 91.23 275.23 C 132.55 253.47 172.09 227.69 213.08 205.08 C 254.07 182.47 293.76 157.54 334.75 134.75 C 375.74 111.95 415.25 87.00 456.70 64.69 C 498.14 42.39 537.92 10.22 584.00 0.00
L 0.00 0.00
L 0.00 376.00 Z"/>
</g>
<g fill="None" fill-opacity="0.0" stroke="#649AD2" stroke-opacity="1.00" stroke-width="0.3"><path d="
M 0.00 376.00 
L 0.00 974.00
C 2.80 987.39 8.04 1001.03 15.00 1013.00
C 19.30 1013.97 26.17 1005.16 31.08 1004.08 C 35.98 1002.99 41.54 996.78 46.70 994.70 C 51.86 992.62 57.38 988.22 62.70 985.70 C 68.01 983.17 72.89 979.10 78.25 976.25 C 83.61 973.39 89.75 970.09 95.08 967.08 C 100.40 964.06 105.40 960.68 110.75 957.75 C 116.09 954.81 121.23 951.44 126.70 948.70 C 132.16 945.95 136.86 942.15 142.25 939.25 C 147.63 936.34 152.94 933.37 158.23 930.23 C 163.52 927.09 169.51 923.95 174.75 920.75 C 179.99 917.54 185.53 914.83 190.70 911.70 C 195.86 908.56 201.47 905.43 206.69 902.69 C 211.92 899.96 217.07 895.52 222.23 893.23 C 227.39 890.94 233.48 886.08 238.23 884.23 C 242.98 882.38 250.44 873.96 255.00 877.00
C 251.70 871.27 248.45 866.38 245.69 860.31 C 242.94 854.23 239.59 848.45 236.70 842.31 C 233.80 836.16 231.00 829.80 228.68 823.32 C 226.35 816.84 223.43 811.48 221.23 804.77 C 219.03 798.06 217.17 790.92 215.02 783.98 C 212.88 777.04 211.31 769.64 209.67 762.33 C 208.03 755.02 206.18 747.62 205.02 739.98 C 203.86 732.33 202.65 725.02 202.01 716.99 C 201.36 708.97 200.92 699.89 200.22 691.78 C 199.53 683.66 199.73 673.16 200.00 665.00 C 200.27 656.84 200.88 648.37 201.33 640.33 C 201.78 632.30 203.46 624.13 204.33 616.33 C 205.20 608.52 207.16 600.87 208.33 593.33 C 209.50 585.79 212.28 578.98 213.78 571.78 C 215.27 564.58 217.62 558.54 219.78 551.78 C 221.93 545.01 224.18 538.21 226.78 531.78 C 229.38 525.34 231.81 518.88 234.77 512.77 C 237.73 506.66 239.69 500.79 242.92 494.92 C 246.15 489.06 249.04 483.01 252.31 477.31 C 255.57 471.60 259.22 466.20 262.75 460.75 C 266.29 455.30 269.73 449.60 273.30 444.30 C 276.88 439.01 280.84 434.72 284.75 429.75 C 288.67 424.79 292.32 419.33 296.75 414.75 C 301.18 410.17 304.89 404.72 309.25 400.25 C 313.61 395.79 317.49 391.24 322.25 387.25 C 327.01 383.25 331.63 378.67 336.25 374.25 C 340.87 369.83 346.47 366.58 351.25 362.25 C 356.02 357.91 361.69 354.75 366.70 350.70 C 371.71 346.65 376.74 343.71 382.08 340.08 C 387.43 336.45 393.07 333.04 398.70 329.70 C 404.33 326.36 410.21 323.17 416.08 320.08 C 421.94 316.98 427.47 314.28 433.69 311.69 C 439.92 309.11 445.74 305.64 452.23 303.23 C 458.72 300.82 465.47 298.68 472.07 296.07 C 478.68 293.47 486.08 292.10 493.01 290.01 C 499.93 287.92 506.36 286.25 513.67 284.67 C 520.99 283.09 528.45 281.48 536.07 280.07 C 543.69 278.66 552.21 278.37 560.02 277.02 C 567.84 275.68 576.60 276.52 584.67 275.67 C 592.74 274.82 602.70 274.65 611.00 275.00 C 619.30 275.35 627.79 276.88 636.00 277.00 C 644.21 277.12 652.22 279.09 660.01 279.99 C 667.80 280.89 674.74 282.27 682.07 283.93 C 689.40 285.59 697.01 286.91 704.02 288.98 C 711.03 291.04 718.02 292.82 724.68 295.32 C 731.33 297.82 737.70 299.15 744.03 301.98 C 750.35 304.80 756.93 307.03 763.07 309.93 C 769.22 312.82 775.33 315.69 781.23 318.77 C 787.13 321.85 793.01 325.08 798.70 328.30 C 804.38 331.53 809.24 334.87 814.75 338.25 C 820.25 341.64 825.95 345.04 831.08 348.92 C 836.22 352.79 841.69 356.46 846.70 360.30 C 851.70 364.14 855.93 368.29 860.75 372.25 C 865.58 376.20 870.67 380.54 875.25 384.75 C 879.82 388.97 884.64 393.64 888.75 398.25 C 892.86 402.86 897.53 407.69 901.75 412.25 C 905.98 416.80 909.31 422.06 913.25 426.75 C 917.19 431.43 921.90 437.08 924.92 442.08 C 927.94 447.08 934.37 452.93 935.92 458.08 C 937.46 463.24 947.09 469.96 946.00 475.00
C 951.93 471.59 958.31 469.09 964.08 465.08 C 969.86 461.07 976.79 458.56 982.70 454.70 C 988.60 450.83 994.92 447.52 1001.08 444.08 C 1007.23 440.64 1012.98 436.50 1019.23 433.23 C 1025.48 429.95 1031.50 426.11 1037.70 422.70 C 1043.89 419.28 1049.88 415.44 1056.08 412.08 C 1062.29 408.72 1068.08 404.63 1074.25 401.25 C 1080.41 397.86 1086.72 394.36 1092.75 390.75 C 1098.77 387.13 1105.22 383.77 1111.23 380.23 C 1117.24 376.69 1123.68 372.97 1129.70 369.70 C 1135.71 366.42 1142.00 361.60 1148.08 359.08 C 1154.15 356.55 1160.34 349.73 1166.23 348.23 C 1172.12 346.73 1179.41 336.84 1185.00 338.00
C 1156.27 289.61 1099.62 272.09 1053.75 243.25 C 1007.89 214.40 956.96 188.27 909.77 160.23 C 862.58 132.19 813.91 104.43 765.77 77.23 C 717.63 50.02 668.93 14.90 616.00 0.00
L 584.00 0.00
C 537.92 10.22 498.14 42.39 456.70 64.69 C 415.25 87.00 375.74 111.95 334.75 134.75 C 293.76 157.54 254.07 182.47 213.08 205.08 C 172.09 227.69 132.55 253.47 91.23 275.23 C 49.91 296.99 6.60 325.75 0.00 376.00 Z"/>
</g>
<g fill="None" fill-opacity="0.0" stroke="#000000" stroke-opacity="0.00" stroke-width="0.3"><path d="
M 1185.00 338.00 
C 1191.90 349.62 1197.42 362.77 1200.00 376.00
L 1200.00 0.00
L 616.00 0.00
C 668.93 14.90 717.63 50.02 765.77 77.23 C 813.91 104.43 862.58 132.19 909.77 160.23 C 956.96 188.27 1007.89 214.40 1053.75 243.25 C 1099.62 272.09 1156.27 289.61 1185.00 338.00 Z"/>
</g>
<g fill="None" fill-opacity="0.0" stroke="#FEFEFE" stroke-opacity="1.00" stroke-width="0.3"><path d="
M 255.00 877.00 
C 258.41 882.92 261.81 888.66 265.75 894.25 C 269.70 899.84 273.30 906.19 277.30 911.70 C 281.31 917.21 285.80 921.76 289.75 927.25 C 293.71 932.73 298.80 937.56 303.25 942.75 C 307.69 947.94 312.26 952.88 317.25 957.75 C 322.24 962.62 326.45 966.95 331.75 971.25 C 337.05 975.56 341.57 980.92 347.08 984.92 C 352.59 988.92 357.74 993.69 363.25 997.75 C 368.76 1001.82 374.35 1005.09 380.08 1008.92 C 385.80 1012.76 391.72 1016.76 397.75 1020.25 C 403.77 1023.75 409.46 1026.85 415.70 1030.30 C 421.93 1033.76 428.65 1036.69 435.23 1039.77 C 441.81 1042.85 448.82 1045.56 455.69 1048.31 C 462.57 1051.05 468.94 1053.49 476.22 1055.78 C 483.50 1058.06 491.08 1060.27 498.68 1062.32 C 506.28 1064.37 514.04 1066.44 522.07 1067.93 C 530.10 1069.42 537.74 1070.32 546.07 1071.93 C 554.41 1073.53 564.23 1072.98 573.00 1074.00 C 581.77 1075.02 591.86 1074.95 601.00 1075.00 C 610.14 1075.05 619.35 1074.86 628.07 1074.07 C 636.80 1073.29 645.78 1072.62 654.07 1071.07 C 662.36 1069.53 670.40 1069.42 678.22 1067.22 C 686.04 1065.02 694.52 1064.48 702.02 1062.02 C 709.53 1059.57 717.02 1057.75 724.22 1055.22 C 731.43 1052.69 738.14 1050.77 745.03 1048.03 C 751.91 1045.28 758.60 1042.19 765.23 1039.23 C 771.86 1036.26 778.26 1032.73 784.70 1029.70 C 791.13 1026.66 796.73 1023.29 802.75 1019.75 C 808.76 1016.20 814.99 1012.60 820.70 1008.70 C 826.40 1004.80 831.68 1001.20 837.23 997.23 C 842.78 993.26 847.81 988.30 853.25 984.25 C 858.69 980.19 864.12 975.65 869.08 971.08 C 874.04 966.51 878.70 962.19 883.25 957.25 C 887.79 952.31 893.51 947.90 897.75 942.75 C 901.99 937.60 906.71 931.96 910.77 926.77 C 914.83 921.58 919.92 916.49 922.92 910.92 C 925.91 905.35 933.30 899.70 934.92 893.92 C 936.54 888.14 946.76 881.71 946.00 876.00
C 916.93 860.31 889.13 841.11 859.92 825.08 C 830.70 809.05 801.82 791.76 773.00 775.00
C 737.76 837.25 670.55 874.69 600.00 875.00 C 529.45 875.31 462.74 836.48 427.00 775.00
C 423.81 769.51 421.14 764.79 418.23 758.77 C 415.32 752.75 413.22 746.52 411.02 739.98 C 408.83 733.43 406.38 727.12 405.02 719.98 C 403.67 712.84 402.28 705.51 401.02 697.98 C 399.77 690.44 400.52 680.93 400.00 673.00 C 399.48 665.07 401.29 657.43 401.98 649.98 C 402.66 642.52 403.97 634.80 405.93 627.93 C 407.89 621.05 408.83 614.01 411.78 607.78 C 414.72 601.54 416.09 595.11 419.31 589.31 C 422.52 583.50 424.82 577.67 428.31 572.31 C 431.79 566.94 434.82 562.48 438.30 557.30 C 441.78 552.13 446.22 547.86 449.92 542.92 C 453.61 537.98 458.54 534.34 462.75 529.75 C 466.96 525.16 472.06 521.86 476.75 517.75 C 481.44 513.64 486.85 510.55 492.08 507.08 C 497.31 503.62 501.99 500.76 507.70 497.70 C 513.40 494.63 519.49 492.37 525.68 489.68 C 531.87 486.99 538.28 485.14 545.02 483.02 C 551.77 480.91 558.72 479.52 566.02 478.02 C 573.33 476.52 581.59 476.65 589.22 475.22 C 596.85 473.79 605.37 476.14 613.00 476.00 C 620.63 475.86 629.10 477.35 636.22 478.78 C 643.35 480.21 650.68 481.35 657.22 483.78 C 663.76 486.21 670.59 487.47 676.68 490.32 C 682.77 493.17 688.40 495.93 694.08 498.92 C 699.76 501.91 704.52 504.92 709.75 508.25 C 714.98 511.59 720.06 515.27 724.75 519.25 C 729.44 523.23 734.58 526.74 738.75 531.25 C 742.92 535.76 748.01 540.10 751.25 544.75 C 754.50 549.39 761.00 554.43 762.77 559.23 C 764.54 564.03 774.09 570.13 773.00 575.00
C 831.42 543.47 888.53 508.07 946.00 475.00
C 947.09 469.96 937.46 463.24 935.92 458.08 C 934.37 452.93 927.94 447.08 924.92 442.08 C 921.90 437.08 917.19 431.43 913.25 426.75 C 909.31 422.06 905.98 416.80 901.75 412.25 C 897.53 407.69 892.86 402.86 888.75 398.25 C 884.64 393.64 879.82 388.97 875.25 384.75 C 870.67 380.54 865.58 376.20 860.75 372.25 C 855.93 368.29 851.70 364.14 846.70 360.30 C 841.69 356.46 836.22 352.79 831.08 348.92 C 825.95 345.04 820.25 341.64 814.75 338.25 C 809.24 334.87 804.38 331.53 798.70 328.30 C 793.01 325.08 787.13 321.85 781.23 318.77 C 775.33 315.69 769.22 312.82 763.07 309.93 C 756.93 307.03 750.35 304.80 744.03 301.98 C 737.70 299.15 731.33 297.82 724.68 295.32 C 718.02 292.82 711.03 291.04 704.02 288.98 C 697.01 286.91 689.40 285.59 682.07 283.93 C 674.74 282.27 667.80 280.89 660.01 279.99 C 652.22 279.09 644.21 277.12 636.00 277.00 C 627.79 276.88 619.30 275.35 611.00 275.00 C 602.70 274.65 592.74 274.82 584.67 275.67 C 576.60 276.52 567.84 275.68 560.02 277.02 C 552.21 278.37 543.69 278.66 536.07 280.07 C 528.45 281.48 520.99 283.09 513.67 284.67 C 506.36 286.25 499.93 287.92 493.01 290.01 C 486.08 292.10 478.68 293.47 472.07 296.07 C 465.47 298.68 458.72 300.82 452.23 303.23 C 445.74 305.64 439.92 309.11 433.69 311.69 C 427.47 314.28 421.94 316.98 416.08 320.08 C 410.21 323.17 404.33 326.36 398.70 329.70 C 393.07 333.04 387.43 336.45 382.08 340.08 C 376.74 343.71 371.71 346.65 366.70 350.70 C 361.69 354.75 356.02 357.91 351.25 362.25 C 346.47 366.58 340.87 369.83 336.25 374.25 C 331.63 378.67 327.01 383.25 322.25 387.25 C 317.49 391.24 313.61 395.79 309.25 400.25 C 304.89 404.72 301.18 410.17 296.75 414.75 C 292.32 419.33 288.67 424.79 284.75 429.75 C 280.84 434.72 276.88 439.01 273.30 444.30 C 269.73 449.60 266.29 455.30 262.75 460.75 C 259.22 466.20 255.57 471.60 252.31 477.31 C 249.04 483.01 246.15 489.06 242.92 494.92 C 239.69 500.79 237.73 506.66 234.77 512.77 C 231.81 518.88 229.38 525.34 226.78 531.78 C 224.18 538.21 221.93 545.01 219.78 551.78 C 217.62 558.54 215.27 564.58 213.78 571.78 C 212.28 578.98 209.50 585.79 208.33 593.33 C 207.16 600.87 205.20 608.52 204.33 616.33 C 203.46 624.13 201.78 632.30 201.33 640.33 C 200.88 648.37 200.27 656.84 200.00 665.00 C 199.73 673.16 199.53 683.66 200.22 691.78 C 200.92 699.89 201.36 708.97 202.01 716.99 C 202.65 725.02 203.86 732.33 205.02 739.98 C 206.18 747.62 208.03 755.02 209.67 762.33 C 211.31 769.64 212.88 777.04 215.02 783.98 C 217.17 790.92 219.03 798.06 221.23 804.77 C 223.43 811.48 226.35 816.84 228.68 823.32 C 231.00 829.80 233.80 836.16 236.70 842.31 C 239.59 848.45 242.94 854.23 245.69 860.31 C 248.45 866.38 251.70 871.27 255.00 877.00 Z"/>
</g>
<g fill="None" fill-opacity="0.0" stroke="#00589C" stroke-opacity="1.00" stroke-width="0.3"><path d="
M 946.00 475.00 
C 888.53 508.07 831.42 543.47 773.00 575.00
C 714.97 606.32 657.97 641.87 601.00 675.00
C 607.05 675.28 613.37 684.29 619.75 686.25 C 626.13 688.22 632.32 694.46 638.75 697.25 C 645.17 700.05 651.32 705.01 657.75 708.25 C 664.17 711.50 670.30 715.76 676.75 719.25 C 683.19 722.75 690.05 726.72 696.25 730.75 C 702.44 734.79 709.59 737.15 715.70 741.31 C 721.81 745.46 728.38 748.51 734.70 752.31 C 741.01 756.10 747.15 759.83 753.70 763.31 C 760.24 766.78 766.76 771.37 773.00 775.00
C 801.82 791.76 830.70 809.05 859.92 825.08 C 889.13 841.11 916.93 860.31 946.00 876.00
C 1026.51 919.44 1105.55 967.05 1185.00 1013.00
C 1191.98 1000.98 1197.19 987.36 1200.00 974.00
L 1200.00 376.00
C 1197.42 362.77 1191.90 349.62 1185.00 338.00
C 1179.41 336.84 1172.12 346.73 1166.23 348.23 C 1160.34 349.73 1154.15 356.55 1148.08 359.08 C 1142.00 361.60 1135.71 366.42 1129.70 369.70 C 1123.68 372.97 1117.24 376.69 1111.23 380.23 C 1105.22 383.77 1098.77 387.13 1092.75 390.75 C 1086.72 394.36 1080.41 397.86 1074.25 401.25 C 1068.08 404.63 1062.29 408.72 1056.08 412.08 C 1049.88 415.44 1043.89 419.28 1037.70 422.70 C 1031.50 426.11 1025.48 429.95 1019.23 433.23 C 1012.98 436.50 1007.23 440.64 1001.08 444.08 C 994.92 447.52 988.60 450.83 982.70 454.70 C 976.79 458.56 969.86 461.07 964.08 465.08 C 958.31 469.09 951.93 471.59 946.00 475.00
M 956.00 653.00 
C 960.92 656.44 971.93 651.20 978.00 653.00 C 984.07 654.80 993.61 651.65 1000.00 653.00
C 1000.00 667.67 1000.00 682.33 1000.00 697.00
C 996.93 701.38 984.62 696.54 979.00 698.00 C 973.38 699.46 962.13 696.91 956.00 698.00
C 955.33 712.50 957.33 728.32 955.00 742.00
C 950.08 745.45 939.07 740.20 933.00 742.00 C 926.93 743.80 917.39 740.65 911.00 742.00
C 911.00 727.33 911.00 712.67 911.00 698.00
C 905.00 697.01 894.55 699.32 889.00 698.00 C 883.45 696.68 870.41 700.80 866.78 697.22 C 863.15 693.64 866.33 679.43 866.00 675.00 C 865.68 670.57 863.92 655.16 867.00 653.00
C 871.92 649.55 882.93 654.80 889.00 653.00 C 895.08 651.20 904.61 654.35 911.00 653.00
C 911.00 638.33 911.00 623.67 911.00 609.00
C 914.14 604.52 927.38 609.57 933.00 608.00 C 938.62 606.43 949.87 609.18 956.00 608.00
C 956.00 623.00 956.00 638.00 956.00 653.00
M 1122.00 609.00 
C 1126.23 613.23 1121.62 623.80 1123.00 630.00 C 1124.38 636.20 1121.96 646.44 1123.00 653.00
C 1127.79 656.35 1138.59 650.47 1144.00 653.00 C 1149.41 655.53 1161.16 649.61 1166.00 653.00
C 1169.89 655.72 1166.37 668.61 1167.00 674.00 C 1167.63 679.40 1167.53 691.13 1167.00 697.00
C 1163.14 701.03 1152.01 697.11 1146.00 698.00 C 1139.99 698.89 1129.43 698.00 1123.00 698.00
C 1123.52 703.65 1123.80 714.77 1123.00 720.00 C 1122.20 725.23 1125.93 739.25 1122.00 742.00
C 1119.22 743.95 1111.69 741.60 1108.00 742.00 C 1104.31 742.40 1096.74 742.62 1093.00 742.00 C 1089.26 741.38 1080.94 744.06 1078.00 742.00
C 1074.11 739.28 1077.63 726.40 1077.00 721.00 C 1076.37 715.60 1076.47 703.87 1077.00 698.00
C 1070.75 698.00 1060.89 699.03 1055.00 698.00 C 1049.11 696.97 1036.89 701.04 1033.00 697.00
C 1032.49 691.34 1032.20 680.23 1033.00 675.00 C 1033.80 669.77 1030.07 655.75 1034.00 653.00
C 1038.79 649.65 1049.59 655.53 1055.00 653.00 C 1060.41 650.47 1072.16 656.39 1077.00 653.00
C 1078.13 646.60 1075.49 637.09 1077.00 631.00 C 1078.51 624.91 1073.75 613.25 1078.00 609.00
C 1081.24 605.76 1095.21 608.02 1100.00 608.00 C 1104.79 607.98 1118.81 605.81 1122.00 609.00 Z"/>
</g>
<g fill="None" fill-opacity="0.0" stroke="#659BD3" stroke-opacity="1.00" stroke-width="0.3"><path d="
M 427.00 775.00 
C 484.95 741.50 543.15 708.64 601.00 675.00
C 657.97 641.87 714.97 606.32 773.00 575.00
C 774.09 570.13 764.54 564.03 762.77 559.23 C 761.00 554.43 754.50 549.39 751.25 544.75 C 748.01 540.10 742.92 535.76 738.75 531.25 C 734.58 526.74 729.44 523.23 724.75 519.25 C 720.06 515.27 714.98 511.59 709.75 508.25 C 704.52 504.92 699.76 501.91 694.08 498.92 C 688.40 495.93 682.77 493.17 676.68 490.32 C 670.59 487.47 663.76 486.21 657.22 483.78 C 650.68 481.35 643.35 480.21 636.22 478.78 C 629.10 477.35 620.63 475.86 613.00 476.00 C 605.37 476.14 596.85 473.79 589.22 475.22 C 581.59 476.65 573.33 476.52 566.02 478.02 C 558.72 479.52 551.77 480.91 545.02 483.02 C 538.28 485.14 531.87 486.99 525.68 489.68 C 519.49 492.37 513.40 494.63 507.70 497.70 C 501.99 500.76 497.31 503.62 492.08 507.08 C 486.85 510.55 481.44 513.64 476.75 517.75 C 472.06 521.86 466.96 525.16 462.75 529.75 C 458.54 534.34 453.61 537.98 449.92 542.92 C 446.22 547.86 441.78 552.13 438.30 557.30 C 434.82 562.48 431.79 566.94 428.31 572.31 C 424.82 577.67 422.52 583.50 419.31 589.31 C 416.09 595.11 414.72 601.54 411.78 607.78 C 408.83 614.01 407.89 621.05 405.93 627.93 C 403.97 634.80 402.66 642.52 401.98 649.98 C 401.29 657.43 399.48 665.07 400.00 673.00 C 400.52 680.93 399.77 690.44 401.02 697.98 C 402.28 705.51 403.67 712.84 405.02 719.98 C 406.38 727.12 408.83 733.43 411.02 739.98 C 413.22 746.52 415.32 752.75 418.23 758.77 C 421.14 764.79 423.81 769.51 427.00 775.00 Z"/>
</g>
<g fill="None" fill-opacity="0.0" stroke="#83AECF" stroke-opacity="1.00" stroke-width="0.3"><path d="
M 911.00 609.00 
C 925.67 609.00 940.33 609.00 955.00 609.00
C 955.67 623.50 953.67 639.32 956.00 653.00
C 956.00 638.00 956.00 623.00 956.00 608.00
C 949.87 609.18 938.62 606.43 933.00 608.00 C 927.38 609.57 914.14 604.52 911.00 609.00 Z"/>
</g>
<g fill="None" fill-opacity="0.0" stroke="#79A9CC" stroke-opacity="1.00" stroke-width="0.3"><path d="
M 1078.00 609.00 
C 1092.67 609.00 1107.33 609.00 1122.00 609.00
C 1118.81 605.81 1104.79 607.98 1100.00 608.00 C 1095.21 608.02 1081.24 605.76 1078.00 609.00 Z"/>
</g>
<g fill="None" fill-opacity="0.0" stroke="#FEFEFE" stroke-opacity="1.00" stroke-width="0.3"><path d="
M 867.00 653.00 
C 867.00 667.67 867.00 682.33 867.00 697.00
C 881.50 697.67 897.32 695.67 911.00 698.00
C 911.00 712.67 911.00 727.33 911.00 742.00
C 917.39 740.65 926.93 743.80 933.00 742.00 C 939.07 740.20 950.08 745.45 955.00 742.00
C 955.00 727.00 955.00 712.00 955.00 697.00
C 970.00 697.00 985.00 697.00 1000.00 697.00
C 1000.00 682.33 1000.00 667.67 1000.00 653.00
C 993.61 651.65 984.07 654.80 978.00 653.00 C 971.93 651.20 960.92 656.44 956.00 653.00
C 953.67 639.32 955.67 623.50 955.00 609.00
C 940.33 609.00 925.67 609.00 911.00 609.00
C 911.00 623.67 911.00 638.33 911.00 653.00
C 904.61 654.35 895.08 651.20 889.00 653.00 C 882.93 654.80 871.92 649.55 867.00 653.00 Z"/>
</g>
<g fill="None" fill-opacity="0.0" stroke="#357EB3" stroke-opacity="1.00" stroke-width="0.3"><path d="
M 1077.00 653.00 
C 1081.38 649.93 1076.54 637.62 1078.00 632.00 C 1079.46 626.38 1076.91 615.13 1078.00 609.00
C 1073.75 613.25 1078.51 624.91 1077.00 631.00 C 1075.49 637.09 1078.13 646.60 1077.00 653.00 Z"/>
</g>
<g fill="None" fill-opacity="0.0" stroke="#FEFEFE" stroke-opacity="1.00" stroke-width="0.3"><path d="
M 1077.00 653.00 
C 1072.16 656.39 1060.41 650.47 1055.00 653.00 C 1049.59 655.53 1038.79 649.65 1034.00 653.00
C 1033.01 667.58 1035.32 682.45 1034.00 697.00
C 1040.25 697.00 1050.11 695.97 1056.00 697.00 C 1061.89 698.03 1074.11 693.96 1078.00 698.00
C 1079.26 712.56 1077.06 727.41 1078.00 742.00
C 1080.94 744.06 1089.26 741.38 1093.00 742.00 C 1096.74 742.62 1104.31 742.40 1108.00 742.00 C 1111.69 741.60 1119.22 743.95 1122.00 742.00
C 1122.99 727.42 1120.68 712.55 1122.00 698.00
C 1125.87 693.98 1136.98 697.89 1143.00 697.00 C 1149.02 696.11 1159.57 697.00 1166.00 697.00
C 1164.69 682.45 1166.98 667.58 1166.00 653.00
C 1161.16 649.61 1149.41 655.53 1144.00 653.00 C 1138.59 650.47 1127.79 656.35 1123.00 653.00
C 1118.62 649.93 1123.46 637.62 1122.00 632.00 C 1120.54 626.38 1123.09 615.13 1122.00 609.00
C 1107.33 609.00 1092.67 609.00 1078.00 609.00
C 1076.91 615.13 1079.46 626.38 1078.00 632.00 C 1076.54 637.62 1081.38 649.93 1077.00 653.00 Z"/>
</g>
<g fill="None" fill-opacity="0.0" stroke="#357EB3" stroke-opacity="1.00" stroke-width="0.3"><path d="
M 1123.00 653.00 
C 1121.96 646.44 1124.38 636.20 1123.00 630.00 C 1121.62 623.80 1126.23 613.23 1122.00 609.00
C 1123.09 615.13 1120.54 626.38 1122.00 632.00 C 1123.46 637.62 1118.62 649.93 1123.00 653.00 Z"/>
</g>
<g fill="None" fill-opacity="0.0" stroke="#5F97C2" stroke-opacity="1.00" stroke-width="0.3"><path d="
M 911.00 698.00 
C 897.32 695.67 881.50 697.67 867.00 697.00
C 867.00 682.33 867.00 667.67 867.00 653.00
C 863.92 655.16 865.68 670.57 866.00 675.00 C 866.33 679.43 863.15 693.64 866.78 697.22 C 870.41 700.80 883.45 696.68 889.00 698.00 C 894.55 699.32 905.00 697.01 911.00 698.00 Z"/>
</g>
<g fill="None" fill-opacity="0.0" stroke="#ACC9DF" stroke-opacity="1.00" stroke-width="0.3"><path d="
M 1033.00 697.00 
C 1033.00 697.04 1034.00 697.00 1034.00 697.00
C 1035.32 682.45 1033.01 667.58 1034.00 653.00
C 1030.07 655.75 1033.80 669.77 1033.00 675.00 C 1032.20 680.23 1032.49 691.34 1033.00 697.00 Z"/>
</g>
<g fill="None" fill-opacity="0.0" stroke="#ACC9DF" stroke-opacity="1.00" stroke-width="0.3"><path d="
M 1166.00 697.00 
C 1166.50 697.00 1167.00 697.00 1167.00 697.00
C 1167.53 691.13 1167.63 679.40 1167.00 674.00 C 1166.37 668.61 1169.89 655.72 1166.00 653.00
C 1166.98 667.58 1164.69 682.45 1166.00 697.00 Z"/>
</g>
<g fill="None" fill-opacity="0.0" stroke="#004283" stroke-opacity="1.00" stroke-width="0.3"><path d="
M 427.00 775.00 
C 462.74 836.48 529.45 875.31 600.00 875.00 C 670.55 874.69 737.76 837.25 773.00 775.00
C 766.76 771.37 760.24 766.78 753.70 763.31 C 747.15 759.83 741.01 756.10 734.70 752.31 C 728.38 748.51 721.81 745.46 715.70 741.31 C 709.59 737.15 702.44 734.79 696.25 730.75 C 690.05 726.72 683.19 722.75 676.75 719.25 C 670.30 715.76 664.17 711.50 657.75 708.25 C 651.32 705.01 645.17 700.05 638.75 697.25 C 632.32 694.46 626.13 688.22 619.75 686.25 C 613.37 684.29 607.05 675.28 601.00 675.00
C 543.15 708.64 484.95 741.50 427.00 775.00 Z"/>
</g>
<g fill="None" fill-opacity="0.0" stroke="#7DAACD" stroke-opacity="1.00" stroke-width="0.3"><path d="
M 955.00 742.00 
C 957.33 728.32 955.33 712.50 956.00 698.00
C 962.13 696.91 973.38 699.46 979.00 698.00 C 984.62 696.54 996.93 701.38 1000.00 697.00
C 985.00 697.00 970.00 697.00 955.00 697.00
C 955.00 712.00 955.00 727.00 955.00 742.00 Z"/>
</g>
<g fill="None" fill-opacity="0.0" stroke="#699EC5" stroke-opacity="1.00" stroke-width="0.3"><path d="
M 1077.00 698.00 
C 1077.50 698.00 1078.00 698.00 1078.00 698.00
C 1074.11 693.96 1061.89 698.03 1056.00 697.00 C 1050.11 695.97 1040.25 697.00 1034.00 697.00
C 1034.00 697.00 1033.00 697.04 1033.00 697.00
C 1036.89 701.04 1049.11 696.97 1055.00 698.00 C 1060.89 699.03 1070.75 698.00 1077.00 698.00 Z"/>
</g>
<g fill="None" fill-opacity="0.0" stroke="#699EC5" stroke-opacity="1.00" stroke-width="0.3"><path d="
M 1122.00 698.00 
C 1122.00 697.96 1123.00 698.00 1123.00 698.00
C 1129.43 698.00 1139.99 698.89 1146.00 698.00 C 1152.01 697.11 1163.14 701.03 1167.00 697.00
C 1167.00 697.00 1166.50 697.00 1166.00 697.00
C 1159.57 697.00 1149.02 696.11 1143.00 697.00 C 1136.98 697.89 1125.87 693.98 1122.00 698.00 Z"/>
</g>
<g fill="None" fill-opacity="0.0" stroke="#347DB2" stroke-opacity="1.00" stroke-width="0.3"><path d="
M 1078.00 742.00 
C 1077.06 727.41 1079.26 712.56 1078.00 698.00
C 1078.00 698.00 1077.50 698.00 1077.00 698.00
C 1076.47 703.87 1076.37 715.60 1077.00 721.00 C 1077.63 726.40 1074.11 739.28 1078.00 742.00 Z"/>
</g>
<g fill="None" fill-opacity="0.0" stroke="#347DB2" stroke-opacity="1.00" stroke-width="0.3"><path d="
M 1122.00 742.00 
C 1125.93 739.25 1122.20 725.23 1123.00 720.00 C 1123.80 714.77 1123.52 703.65 1123.00 698.00
C 1123.00 698.00 1122.00 697.96 1122.00 698.00
C 1120.68 712.55 1122.99 727.42 1122.00 742.00 Z"/>
</g>
<g fill="None" fill-opacity="0.0" stroke="#004182" stroke-opacity="1.00" stroke-width="0.3"><path d="
M 15.00 1013.00 
C 38.19 1052.89 81.27 1068.46 119.08 1090.92 C 156.88 1113.39 196.56 1136.33 235.08 1157.92 C 273.59 1179.52 311.23 1204.03 350.23 1224.77 C 389.23 1245.51 426.69 1272.41 466.23 1291.77 C 505.77 1311.13 544.97 1350.00 591.00 1350.00
C 596.50 1350.00 603.33 1349.17 608.00 1351.00
L 609.00 1351.00
C 663.85 1340.28 713.03 1302.80 761.70 1275.69 C 810.36 1248.59 859.12 1219.78 906.70 1191.70 C 954.27 1163.61 1005.41 1137.77 1051.23 1108.23 C 1097.05 1078.69 1156.38 1062.24 1185.00 1013.00
C 1105.55 967.05 1026.51 919.44 946.00 876.00
C 946.76 881.71 936.54 888.14 934.92 893.92 C 933.30 899.70 925.91 905.35 922.92 910.92 C 919.92 916.49 914.83 921.58 910.77 926.77 C 906.71 931.96 901.99 937.60 897.75 942.75 C 893.51 947.90 887.79 952.31 883.25 957.25 C 878.70 962.19 874.04 966.51 869.08 971.08 C 864.12 975.65 858.69 980.19 853.25 984.25 C 847.81 988.30 842.78 993.26 837.23 997.23 C 831.68 1001.20 826.40 1004.80 820.70 1008.70 C 814.99 1012.60 808.76 1016.20 802.75 1019.75 C 796.73 1023.29 791.13 1026.66 784.70 1029.70 C 778.26 1032.73 771.86 1036.26 765.23 1039.23 C 758.60 1042.19 751.91 1045.28 745.03 1048.03 C 738.14 1050.77 731.43 1052.69 724.22 1055.22 C 717.02 1057.75 709.53 1059.57 702.02 1062.02 C 694.52 1064.48 686.04 1065.02 678.22 1067.22 C 670.40 1069.42 662.36 1069.53 654.07 1071.07 C 645.78 1072.62 636.80 1073.29 628.07 1074.07 C 619.35 1074.86 610.14 1075.05 601.00 1075.00 C 591.86 1074.95 581.77 1075.02 573.00 1074.00 C 564.23 1072.98 554.41 1073.53 546.07 1071.93 C 537.74 1070.32 530.10 1069.42 522.07 1067.93 C 514.04 1066.44 506.28 1064.37 498.68 1062.32 C 491.08 1060.27 483.50 1058.06 476.22 1055.78 C 468.94 1053.49 462.57 1051.05 455.69 1048.31 C 448.82 1045.56 441.81 1042.85 435.23 1039.77 C 428.65 1036.69 421.93 1033.76 415.70 1030.30 C 409.46 1026.85 403.77 1023.75 397.75 1020.25 C 391.72 1016.76 385.80 1012.76 380.08 1008.92 C 374.35 1005.09 368.76 1001.82 363.25 997.75 C 357.74 993.69 352.59 988.92 347.08 984.92 C 341.57 980.92 337.05 975.56 331.75 971.25 C 326.45 966.95 322.24 962.62 317.25 957.75 C 312.26 952.88 307.69 947.94 303.25 942.75 C 298.80 937.56 293.71 932.73 289.75 927.25 C 285.80 921.76 281.31 917.21 277.30 911.70 C 273.30 906.19 269.70 899.84 265.75 894.25 C 261.81 888.66 258.41 882.92 255.00 877.00
C 250.44 873.96 242.98 882.38 238.23 884.23 C 233.48 886.08 227.39 890.94 222.23 893.23 C 217.07 895.52 211.92 899.96 206.69 902.69 C 201.47 905.43 195.86 908.56 190.70 911.70 C 185.53 914.83 179.99 917.54 174.75 920.75 C 169.51 923.95 163.52 927.09 158.23 930.23 C 152.94 933.37 147.63 936.34 142.25 939.25 C 136.86 942.15 132.16 945.95 126.70 948.70 C 121.23 951.44 116.09 954.81 110.75 957.75 C 105.40 960.68 100.40 964.06 95.08 967.08 C 89.75 970.09 83.61 973.39 78.25 976.25 C 72.89 979.10 68.01 983.17 62.70 985.70 C 57.38 988.22 51.86 992.62 46.70 994.70 C 41.54 996.78 35.98 1002.99 31.08 1004.08 C 26.17 1005.16 19.30 1013.97 15.00 1013.00 Z"/>
</g>
<g fill="None" fill-opacity="0.0" stroke="#000000" stroke-opacity="0.00" stroke-width="0.3"><path d="
M 0.00 1351.00 
L 591.00 1351.00
C 591.00 1350.50 591.00 1350.00 591.00 1350.00
C 544.97 1350.00 505.77 1311.13 466.23 1291.77 C 426.69 1272.41 389.23 1245.51 350.23 1224.77 C 311.23 1204.03 273.59 1179.52 235.08 1157.92 C 196.56 1136.33 156.88 1113.39 119.08 1090.92 C 81.27 1068.46 38.19 1052.89 15.00 1013.00
C 8.04 1001.03 2.80 987.39 0.00 974.00
L 0.00 1351.00 Z"/>
</g>
<g fill="None" fill-opacity="0.0" stroke="#000000" stroke-opacity="0.00" stroke-width="0.3"><path d="
M 1185.00 1013.00 
C 1156.38 1062.24 1097.05 1078.69 1051.23 1108.23 C 1005.41 1137.77 954.27 1163.61 906.70 1191.70 C 859.12 1219.78 810.36 1248.59 761.70 1275.69 C 713.03 1302.80 663.85 1340.28 609.00 1351.00
L 1200.00 1351.00
L 1200.00 974.00
C 1197.19 987.36 1191.98 1000.98 1185.00 1013.00 Z"/>
</g>
<g fill="None" fill-opacity="0.0" stroke="#004382" stroke-opacity="0.26" stroke-width="0.3"><path d="
M 591.00 1351.00 
L 608.00 1351.00
C 603.33 1349.17 596.50 1350.00 591.00 1350.00
C 591.00 1350.00 591.00 1350.50 591.00 1351.00 Z"/>
</g>
<g fill="#000000" fill-opacity="0.00" stroke="None">
<path d="
M 0.00 376.00 
C 6.60 325.75 49.91 296.99 91.23 275.23 C 132.55 253.47 172.09 227.69 213.08 205.08 C 254.07 182.47 293.76 157.54 334.75 134.75 C 375.74 111.95 415.25 87.00 456.70 64.69 C 498.14 42.39 537.92 10.22 584.00 0.00
L 0.00 0.00
L 0.00 376.00 Z"/>
</g>
<g fill="#649AD2" fill-opacity="1.00" stroke="None">
<path d="
M 0.00 376.00 
L 0.00 974.00
C 2.80 987.39 8.04 1001.03 15.00 1013.00
C 19.30 1013.97 26.17 1005.16 31.08 1004.08 C 35.98 1002.99 41.54 996.78 46.70 994.70 C 51.86 992.62 57.38 988.22 62.70 985.70 C 68.01 983.17 72.89 979.10 78.25 976.25 C 83.61 973.39 89.75 970.09 95.08 967.08 C 100.40 964.06 105.40 960.68 110.75 957.75 C 116.09 954.81 121.23 951.44 126.70 948.70 C 132.16 945.95 136.86 942.15 142.25 939.25 C 147.63 936.34 152.94 933.37 158.23 930.23 C 163.52 927.09 169.51 923.95 174.75 920.75 C 179.99 917.54 185.53 914.83 190.70 911.70 C 195.86 908.56 201.47 905.43 206.69 902.69 C 211.92 899.96 217.07 895.52 222.23 893.23 C 227.39 890.94 233.48 886.08 238.23 884.23 C 242.98 882.38 250.44 873.96 255.00 877.00
C 251.70 871.27 248.45 866.38 245.69 860.31 C 242.94 854.23 239.59 848.45 236.70 842.31 C 233.80 836.16 231.00 829.80 228.68 823.32 C 226.35 816.84 223.43 811.48 221.23 804.77 C 219.03 798.06 217.17 790.92 215.02 783.98 C 212.88 777.04 211.31 769.64 209.67 762.33 C 208.03 755.02 206.18 747.62 205.02 739.98 C 203.86 732.33 202.65 725.02 202.01 716.99 C 201.36 708.97 200.92 699.89 200.22 691.78 C 199.53 683.66 199.73 673.16 200.00 665.00 C 200.27 656.84 200.88 648.37 201.33 640.33 C 201.78 632.30 203.46 624.13 204.33 616.33 C 205.20 608.52 207.16 600.87 208.33 593.33 C 209.50 585.79 212.28 578.98 213.78 571.78 C 215.27 564.58 217.62 558.54 219.78 551.78 C 221.93 545.01 224.18 538.21 226.78 531.78 C 229.38 525.34 231.81 518.88 234.77 512.77 C 237.73 506.66 239.69 500.79 242.92 494.92 C 246.15 489.06 249.04 483.01 252.31 477.31 C 255.57 471.60 259.22 466.20 262.75 460.75 C 266.29 455.30 269.73 449.60 273.30 444.30 C 276.88 439.01 280.84 434.72 284.75 429.75 C 288.67 424.79 292.32 419.33 296.75 414.75 C 301.18 410.17 304.89 404.72 309.25 400.25 C 313.61 395.79 317.49 391.24 322.25 387.25 C 327.01 383.25 331.63 378.67 336.25 374.25 C 340.87 369.83 346.47 366.58 351.25 362.25 C 356.02 357.91 361.69 354.75 366.70 350.70 C 371.71 346.65 376.74 343.71 382.08 340.08 C 387.43 336.45 393.07 333.04 398.70 329.70 C 404.33 326.36 410.21 323.17 416.08 320.08 C 421.94 316.98 427.47 314.28 433.69 311.69 C 439.92 309.11 445.74 305.64 452.23 303.23 C 458.72 300.82 465.47 298.68 472.07 296.07 C 478.68 293.47 486.08 292.10 493.01 290.01 C 499.93 287.92 506.36 286.25 513.67 284.67 C 520.99 283.09 528.45 281.48 536.07 280.07 C 543.69 278.66 552.21 278.37 560.02 277.02 C 567.84 275.68 576.60 276.52 584.67 275.67 C 592.74 274.82 602.70 274.65 611.00 275.00 C 619.30 275.35 627.79 276.88 636.00 277.00 C 644.21 277.12 652.22 279.09 660.01 279.99 C 667.80 280.89 674.74 282.27 682.07 283.93 C 689.40 285.59 697.01 286.91 704.02 288.98 C 711.03 291.04 718.02 292.82 724.68 295.32 C 731.33 297.82 737.70 299.15 744.03 301.98 C 750.35 304.80 756.93 307.03 763.07 309.93 C 769.22 312.82 775.33 315.69 781.23 318.77 C 787.13 321.85 793.01 325.08 798.70 328.30 C 804.38 331.53 809.24 334.87 814.75 338.25 C 820.25 341.64 825.95 345.04 831.08 348.92 C 836.22 352.79 841.69 356.46 846.70 360.30 C 851.70 364.14 855.93 368.29 860.75 372.25 C 865.58 376.20 870.67 380.54 875.25 384.75 C 879.82 388.97 884.64 393.64 888.75 398.25 C 892.86 402.86 897.53 407.69 901.75 412.25 C 905.98 416.80 909.31 422.06 913.25 426.75 C 917.19 431.43 921.90 437.08 924.92 442.08 C 927.94 447.08 934.37 452.93 935.92 458.08 C 937.46 463.24 947.09 469.96 946.00 475.00
C 951.93 471.59 958.31 469.09 964.08 465.08 C 969.86 461.07 976.79 458.56 982.70 454.70 C 988.60 450.83 994.92 447.52 1001.08 444.08 C 1007.23 440.64 1012.98 436.50 1019.23 433.23 C 1025.48 429.95 1031.50 426.11 1037.70 422.70 C 1043.89 419.28 1049.88 415.44 1056.08 412.08 C 1062.29 408.72 1068.08 404.63 1074.25 401.25 C 1080.41 397.86 1086.72 394.36 1092.75 390.75 C 1098.77 387.13 1105.22 383.77 1111.23 380.23 C 1117.24 376.69 1123.68 372.97 1129.70 369.70 C 1135.71 366.42 1142.00 361.60 1148.08 359.08 C 1154.15 356.55 1160.34 349.73 1166.23 348.23 C 1172.12 346.73 1179.41 336.84 1185.00 338.00
C 1156.27 289.61 1099.62 272.09 1053.75 243.25 C 1007.89 214.40 956.96 188.27 909.77 160.23 C 862.58 132.19 813.91 104.43 765.77 77.23 C 717.63 50.02 668.93 14.90 616.00 0.00
L 584.00 0.00
C 537.92 10.22 498.14 42.39 456.70 64.69 C 415.25 87.00 375.74 111.95 334.75 134.75 C 293.76 157.54 254.07 182.47 213.08 205.08 C 172.09 227.69 132.55 253.47 91.23 275.23 C 49.91 296.99 6.60 325.75 0.00 376.00 Z"/>
</g>
<g fill="#000000" fill-opacity="0.00" stroke="None">
<path d="
M 1185.00 338.00 
C 1191.90 349.62 1197.42 362.77 1200.00 376.00
L 1200.00 0.00
L 616.00 0.00
C 668.93 14.90 717.63 50.02 765.77 77.23 C 813.91 104.43 862.58 132.19 909.77 160.23 C 956.96 188.27 1007.89 214.40 1053.75 243.25 C 1099.62 272.09 1156.27 289.61 1185.00 338.00 Z"/>
</g>
<g fill="#FEFEFE" fill-opacity="1.00" stroke="None">
<path d="
M 255.00 877.00 
C 258.41 882.92 261.81 888.66 265.75 894.25 C 269.70 899.84 273.30 906.19 277.30 911.70 C 281.31 917.21 285.80 921.76 289.75 927.25 C 293.71 932.73 298.80 937.56 303.25 942.75 C 307.69 947.94 312.26 952.88 317.25 957.75 C 322.24 962.62 326.45 966.95 331.75 971.25 C 337.05 975.56 341.57 980.92 347.08 984.92 C 352.59 988.92 357.74 993.69 363.25 997.75 C 368.76 1001.82 374.35 1005.09 380.08 1008.92 C 385.80 1012.76 391.72 1016.76 397.75 1020.25 C 403.77 1023.75 409.46 1026.85 415.70 1030.30 C 421.93 1033.76 428.65 1036.69 435.23 1039.77 C 441.81 1042.85 448.82 1045.56 455.69 1048.31 C 462.57 1051.05 468.94 1053.49 476.22 1055.78 C 483.50 1058.06 491.08 1060.27 498.68 1062.32 C 506.28 1064.37 514.04 1066.44 522.07 1067.93 C 530.10 1069.42 537.74 1070.32 546.07 1071.93 C 554.41 1073.53 564.23 1072.98 573.00 1074.00 C 581.77 1075.02 591.86 1074.95 601.00 1075.00 C 610.14 1075.05 619.35 1074.86 628.07 1074.07 C 636.80 1073.29 645.78 1072.62 654.07 1071.07 C 662.36 1069.53 670.40 1069.42 678.22 1067.22 C 686.04 1065.02 694.52 1064.48 702.02 1062.02 C 709.53 1059.57 717.02 1057.75 724.22 1055.22 C 731.43 1052.69 738.14 1050.77 745.03 1048.03 C 751.91 1045.28 758.60 1042.19 765.23 1039.23 C 771.86 1036.26 778.26 1032.73 784.70 1029.70 C 791.13 1026.66 796.73 1023.29 802.75 1019.75 C 808.76 1016.20 814.99 1012.60 820.70 1008.70 C 826.40 1004.80 831.68 1001.20 837.23 997.23 C 842.78 993.26 847.81 988.30 853.25 984.25 C 858.69 980.19 864.12 975.65 869.08 971.08 C 874.04 966.51 878.70 962.19 883.25 957.25 C 887.79 952.31 893.51 947.90 897.75 942.75 C 901.99 937.60 906.71 931.96 910.77 926.77 C 914.83 921.58 919.92 916.49 922.92 910.92 C 925.91 905.35 933.30 899.70 934.92 893.92 C 936.54 888.14 946.76 881.71 946.00 876.00
C 916.93 860.31 889.13 841.11 859.92 825.08 C 830.70 809.05 801.82 791.76 773.00 775.00
C 737.76 837.25 670.55 874.69 600.00 875.00 C 529.45 875.31 462.74 836.48 427.00 775.00
C 423.81 769.51 421.14 764.79 418.23 758.77 C 415.32 752.75 413.22 746.52 411.02 739.98 C 408.83 733.43 406.38 727.12 405.02 719.98 C 403.67 712.84 402.28 705.51 401.02 697.98 C 399.77 690.44 400.52 680.93 400.00 673.00 C 399.48 665.07 401.29 657.43 401.98 649.98 C 402.66 642.52 403.97 634.80 405.93 627.93 C 407.89 621.05 408.83 614.01 411.78 607.78 C 414.72 601.54 416.09 595.11 419.31 589.31 C 422.52 583.50 424.82 577.67 428.31 572.31 C 431.79 566.94 434.82 562.48 438.30 557.30 C 441.78 552.13 446.22 547.86 449.92 542.92 C 453.61 537.98 458.54 534.34 462.75 529.75 C 466.96 525.16 472.06 521.86 476.75 517.75 C 481.44 513.64 486.85 510.55 492.08 507.08 C 497.31 503.62 501.99 500.76 507.70 497.70 C 513.40 494.63 519.49 492.37 525.68 489.68 C 531.87 486.99 538.28 485.14 545.02 483.02 C 551.77 480.91 558.72 479.52 566.02 478.02 C 573.33 476.52 581.59 476.65 589.22 475.22 C 596.85 473.79 605.37 476.14 613.00 476.00 C 620.63 475.86 629.10 477.35 636.22 478.78 C 643.35 480.21 650.68 481.35 657.22 483.78 C 663.76 486.21 670.59 487.47 676.68 490.32 C 682.77 493.17 688.40 495.93 694.08 498.92 C 699.76 501.91 704.52 504.92 709.75 508.25 C 714.98 511.59 720.06 515.27 724.75 519.25 C 729.44 523.23 734.58 526.74 738.75 531.25 C 742.92 535.76 748.01 540.10 751.25 544.75 C 754.50 549.39 761.00 554.43 762.77 559.23 C 764.54 564.03 774.09 570.13 773.00 575.00
C 831.42 543.47 888.53 508.07 946.00 475.00
C 947.09 469.96 937.46 463.24 935.92 458.08 C 934.37 452.93 927.94 447.08 924.92 442.08 C 921.90 437.08 917.19 431.43 913.25 426.75 C 909.31 422.06 905.98 416.80 901.75 412.25 C 897.53 407.69 892.86 402.86 888.75 398.25 C 884.64 393.64 879.82 388.97 875.25 384.75 C 870.67 380.54 865.58 376.20 860.75 372.25 C 855.93 368.29 851.70 364.14 846.70 360.30 C 841.69 356.46 836.22 352.79 831.08 348.92 C 825.95 345.04 820.25 341.64 814.75 338.25 C 809.24 334.87 804.38 331.53 798.70 328.30 C 793.01 325.08 787.13 321.85 781.23 318.77 C 775.33 315.69 769.22 312.82 763.07 309.93 C 756.93 307.03 750.35 304.80 744.03 301.98 C 737.70 299.15 731.33 297.82 724.68 295.32 C 718.02 292.82 711.03 291.04 704.02 288.98 C 697.01 286.91 689.40 285.59 682.07 283.93 C 674.74 282.27 667.80 280.89 660.01 279.99 C 652.22 279.09 644.21 277.12 636.00 277.00 C 627.79 276.88 619.30 275.35 611.00 275.00 C 602.70 274.65 592.74 274.82 584.67 275.67 C 576.60 276.52 567.84 275.68 560.02 277.02 C 552.21 278.37 543.69 278.66 536.07 280.07 C 528.45 281.48 520.99 283.09 513.67 284.67 C 506.36 286.25 499.93 287.92 493.01 290.01 C 486.08 292.10 478.68 293.47 472.07 296.07 C 465.47 298.68 458.72 300.82 452.23 303.23 C 445.74 305.64 439.92 309.11 433.69 311.69 C 427.47 314.28 421.94 316.98 416.08 320.08 C 410.21 323.17 404.33 326.36 398.70 329.70 C 393.07 333.04 387.43 336.45 382.08 340.08 C 376.74 343.71 371.71 346.65 366.70 350.70 C 361.69 354.75 356.02 357.91 351.25 362.25 C 346.47 366.58 340.87 369.83 336.25 374.25 C 331.63 378.67 327.01 383.25 322.25 387.25 C 317.49 391.24 313.61 395.79 309.25 400.25 C 304.89 404.72 301.18 410.17 296.75 414.75 C 292.32 419.33 288.67 424.79 284.75 429.75 C 280.84 434.72 276.88 439.01 273.30 444.30 C 269.73 449.60 266.29 455.30 262.75 460.75 C 259.22 466.20 255.57 471.60 252.31 477.31 C 249.04 483.01 246.15 489.06 242.92 494.92 C 239.69 500.79 237.73 506.66 234.77 512.77 C 231.81 518.88 229.38 525.34 226.78 531.78 C 224.18 538.21 221.93 545.01 219.78 551.78 C 217.62 558.54 215.27 564.58 213.78 571.78 C 212.28 578.98 209.50 585.79 208.33 593.33 C 207.16 600.87 205.20 608.52 204.33 616.33 C 203.46 624.13 201.78 632.30 201.33 640.33 C 200.88 648.37 200.27 656.84 200.00 665.00 C 199.73 673.16 199.53 683.66 200.22 691.78 C 200.92 699.89 201.36 708.97 202.01 716.99 C 202.65 725.02 203.86 732.33 205.02 739.98 C 206.18 747.62 208.03 755.02 209.67 762.33 C 211.31 769.64 212.88 777.04 215.02 783.98 C 217.17 790.92 219.03 798.06 221.23 804.77 C 223.43 811.48 226.35 816.84 228.68 823.32 C 231.00 829.80 233.80 836.16 236.70 842.31 C 239.59 848.45 242.94 854.23 245.69 860.31 C 248.45 866.38 251.70 871.27 255.00 877.00 Z"/>
</g>
<g fill="#00589C" fill-opacity="1.00" stroke="None">
<path d="
M 946.00 475.00 
C 888.53 508.07 831.42 543.47 773.00 575.00
C 714.97 606.32 657.97 641.87 601.00 675.00
C 607.05 675.28 613.37 684.29 619.75 686.25 C 626.13 688.22 632.32 694.46 638.75 697.25 C 645.17 700.05 651.32 705.01 657.75 708.25 C 664.17 711.50 670.30 715.76 676.75 719.25 C 683.19 722.75 690.05 726.72 696.25 730.75 C 702.44 734.79 709.59 737.15 715.70 741.31 C 721.81 745.46 728.38 748.51 734.70 752.31 C 741.01 756.10 747.15 759.83 753.70 763.31 C 760.24 766.78 766.76 771.37 773.00 775.00
C 801.82 791.76 830.70 809.05 859.92 825.08 C 889.13 841.11 916.93 860.31 946.00 876.00
C 1026.51 919.44 1105.55 967.05 1185.00 1013.00
C 1191.98 1000.98 1197.19 987.36 1200.00 974.00
L 1200.00 376.00
C 1197.42 362.77 1191.90 349.62 1185.00 338.00
C 1179.41 336.84 1172.12 346.73 1166.23 348.23 C 1160.34 349.73 1154.15 356.55 1148.08 359.08 C 1142.00 361.60 1135.71 366.42 1129.70 369.70 C 1123.68 372.97 1117.24 376.69 1111.23 380.23 C 1105.22 383.77 1098.77 387.13 1092.75 390.75 C 1086.72 394.36 1080.41 397.86 1074.25 401.25 C 1068.08 404.63 1062.29 408.72 1056.08 412.08 C 1049.88 415.44 1043.89 419.28 1037.70 422.70 C 1031.50 426.11 1025.48 429.95 1019.23 433.23 C 1012.98 436.50 1007.23 440.64 1001.08 444.08 C 994.92 447.52 988.60 450.83 982.70 454.70 C 976.79 458.56 969.86 461.07 964.08 465.08 C 958.31 469.09 951.93 471.59 946.00 475.00
M 956.00 653.00 
C 960.92 656.44 971.93 651.20 978.00 653.00 C 984.07 654.80 993.61 651.65 1000.00 653.00
C 1000.00 667.67 1000.00 682.33 1000.00 697.00
C 996.93 701.38 984.62 696.54 979.00 698.00 C 973.38 699.46 962.13 696.91 956.00 698.00
C 955.33 712.50 957.33 728.32 955.00 742.00
C 950.08 745.45 939.07 740.20 933.00 742.00 C 926.93 743.80 917.39 740.65 911.00 742.00
C 911.00 727.33 911.00 712.67 911.00 698.00
C 905.00 697.01 894.55 699.32 889.00 698.00 C 883.45 696.68 870.41 700.80 866.78 697.22 C 863.15 693.64 866.33 679.43 866.00 675.00 C 865.68 670.57 863.92 655.16 867.00 653.00
C 871.92 649.55 882.93 654.80 889.00 653.00 C 895.08 651.20 904.61 654.35 911.00 653.00
C 911.00 638.33 911.00 623.67 911.00 609.00
C 914.14 604.52 927.38 609.57 933.00 608.00 C 938.62 606.43 949.87 609.18 956.00 608.00
C 956.00 623.00 956.00 638.00 956.00 653.00
M 1122.00 609.00 
C 1126.23 613.23 1121.62 623.80 1123.00 630.00 C 1124.38 636.20 1121.96 646.44 1123.00 653.00
C 1127.79 656.35 1138.59 650.47 1144.00 653.00 C 1149.41 655.53 1161.16 649.61 1166.00 653.00
C 1169.89 655.72 1166.37 668.61 1167.00 674.00 C 1167.63 679.40 1167.53 691.13 1167.00 697.00
C 1163.14 701.03 1152.01 697.11 1146.00 698.00 C 1139.99 698.89 1129.43 698.00 1123.00 698.00
C 1123.52 703.65 1123.80 714.77 1123.00 720.00 C 1122.20 725.23 1125.93 739.25 1122.00 742.00
C 1119.22 743.95 1111.69 741.60 1108.00 742.00 C 1104.31 742.40 1096.74 742.62 1093.00 742.00 C 1089.26 741.38 1080.94 744.06 1078.00 742.00
C 1074.11 739.28 1077.63 726.40 1077.00 721.00 C 1076.37 715.60 1076.47 703.87 1077.00 698.00
C 1070.75 698.00 1060.89 699.03 1055.00 698.00 C 1049.11 696.97 1036.89 701.04 1033.00 697.00
C 1032.49 691.34 1032.20 680.23 1033.00 675.00 C 1033.80 669.77 1030.07 655.75 1034.00 653.00
C 1038.79 649.65 1049.59 655.53 1055.00 653.00 C 1060.41 650.47 1072.16 656.39 1077.00 653.00
C 1078.13 646.60 1075.49 637.09 1077.00 631.00 C 1078.51 624.91 1073.75 613.25 1078.00 609.00
C 1081.24 605.76 1095.21 608.02 1100.00 608.00 C 1104.79 607.98 1118.81 605.81 1122.00 609.00 Z"/>
</g>
<g fill="#659BD3" fill-opacity="1.00" stroke="None">
<path d="
M 427.00 775.00 
C 484.95 741.50 543.15 708.64 601.00 675.00
C 657.97 641.87 714.97 606.32 773.00 575.00
C 774.09 570.13 764.54 564.03 762.77 559.23 C 761.00 554.43 754.50 549.39 751.25 544.75 C 748.01 540.10 742.92 535.76 738.75 531.25 C 734.58 526.74 729.44 523.23 724.75 519.25 C 720.06 515.27 714.98 511.59 709.75 508.25 C 704.52 504.92 699.76 501.91 694.08 498.92 C 688.40 495.93 682.77 493.17 676.68 490.32 C 670.59 487.47 663.76 486.21 657.22 483.78 C 650.68 481.35 643.35 480.21 636.22 478.78 C 629.10 477.35 620.63 475.86 613.00 476.00 C 605.37 476.14 596.85 473.79 589.22 475.22 C 581.59 476.65 573.33 476.52 566.02 478.02 C 558.72 479.52 551.77 480.91 545.02 483.02 C 538.28 485.14 531.87 486.99 525.68 489.68 C 519.49 492.37 513.40 494.63 507.70 497.70 C 501.99 500.76 497.31 503.62 492.08 507.08 C 486.85 510.55 481.44 513.64 476.75 517.75 C 472.06 521.86 466.96 525.16 462.75 529.75 C 458.54 534.34 453.61 537.98 449.92 542.92 C 446.22 547.86 441.78 552.13 438.30 557.30 C 434.82 562.48 431.79 566.94 428.31 572.31 C 424.82 577.67 422.52 583.50 419.31 589.31 C 416.09 595.11 414.72 601.54 411.78 607.78 C 408.83 614.01 407.89 621.05 405.93 627.93 C 403.97 634.80 402.66 642.52 401.98 649.98 C 401.29 657.43 399.48 665.07 400.00 673.00 C 400.52 680.93 399.77 690.44 401.02 697.98 C 402.28 705.51 403.67 712.84 405.02 719.98 C 406.38 727.12 408.83 733.43 411.02 739.98 C 413.22 746.52 415.32 752.75 418.23 758.77 C 421.14 764.79 423.81 769.51 427.00 775.00 Z"/>
</g>
<g fill="#83AECF" fill-opacity="1.00" stroke="None">
<path d="
M 911.00 609.00 
C 925.67 609.00 940.33 609.00 955.00 609.00
C 955.67 623.50 953.67 639.32 956.00 653.00
C 956.00 638.00 956.00 623.00 956.00 608.00
C 949.87 609.18 938.62 606.43 933.00 608.00 C 927.38 609.57 914.14 604.52 911.00 609.00 Z"/>
</g>
<g fill="#79A9CC" fill-opacity="1.00" stroke="None">
<path d="
M 1078.00 609.00 
C 1092.67 609.00 1107.33 609.00 1122.00 609.00
C 1118.81 605.81 1104.79 607.98 1100.00 608.00 C 1095.21 608.02 1081.24 605.76 1078.00 609.00 Z"/>
</g>
<g fill="#FEFEFE" fill-opacity="1.00" stroke="None">
<path d="
M 867.00 653.00 
C 867.00 667.67 867.00 682.33 867.00 697.00
C 881.50 697.67 897.32 695.67 911.00 698.00
C 911.00 712.67 911.00 727.33 911.00 742.00
C 917.39 740.65 926.93 743.80 933.00 742.00 C 939.07 740.20 950.08 745.45 955.00 742.00
C 955.00 727.00 955.00 712.00 955.00 697.00
C 970.00 697.00 985.00 697.00 1000.00 697.00
C 1000.00 682.33 1000.00 667.67 1000.00 653.00
C 993.61 651.65 984.07 654.80 978.00 653.00 C 971.93 651.20 960.92 656.44 956.00 653.00
C 953.67 639.32 955.67 623.50 955.00 609.00
C 940.33 609.00 925.67 609.00 911.00 609.00
C 911.00 623.67 911.00 638.33 911.00 653.00
C 904.61 654.35 895.08 651.20 889.00 653.00 C 882.93 654.80 871.92 649.55 867.00 653.00 Z"/>
</g>
<g fill="#357EB3" fill-opacity="1.00" stroke="None">
<path d="
M 1077.00 653.00 
C 1081.38 649.93 1076.54 637.62 1078.00 632.00 C 1079.46 626.38 1076.91 615.13 1078.00 609.00
C 1073.75 613.25 1078.51 624.91 1077.00 631.00 C 1075.49 637.09 1078.13 646.60 1077.00 653.00 Z"/>
</g>
<g fill="#FEFEFE" fill-opacity="1.00" stroke="None">
<path d="
M 1077.00 653.00 
C 1072.16 656.39 1060.41 650.47 1055.00 653.00 C 1049.59 655.53 1038.79 649.65 1034.00 653.00
C 1033.01 667.58 1035.32 682.45 1034.00 697.00
C 1040.25 697.00 1050.11 695.97 1056.00 697.00 C 1061.89 698.03 1074.11 693.96 1078.00 698.00
C 1079.26 712.56 1077.06 727.41 1078.00 742.00
C 1080.94 744.06 1089.26 741.38 1093.00 742.00 C 1096.74 742.62 1104.31 742.40 1108.00 742.00 C 1111.69 741.60 1119.22 743.95 1122.00 742.00
C 1122.99 727.42 1120.68 712.55 1122.00 698.00
C 1125.87 693.98 1136.98 697.89 1143.00 697.00 C 1149.02 696.11 1159.57 697.00 1166.00 697.00
C 1164.69 682.45 1166.98 667.58 1166.00 653.00
C 1161.16 649.61 1149.41 655.53 1144.00 653.00 C 1138.59 650.47 1127.79 656.35 1123.00 653.00
C 1118.62 649.93 1123.46 637.62 1122.00 632.00 C 1120.54 626.38 1123.09 615.13 1122.00 609.00
C 1107.33 609.00 1092.67 609.00 1078.00 609.00
C 1076.91 615.13 1079.46 626.38 1078.00 632.00 C 1076.54 637.62 1081.38 649.93 1077.00 653.00 Z"/>
</g>
<g fill="#357EB3" fill-opacity="1.00" stroke="None">
<path d="
M 1123.00 653.00 
C 1121.96 646.44 1124.38 636.20 1123.00 630.00 C 1121.62 623.80 1126.23 613.23 1122.00 609.00
C 1123.09 615.13 1120.54 626.38 1122.00 632.00 C 1123.46 637.62 1118.62 649.93 1123.00 653.00 Z"/>
</g>
<g fill="#5F97C2" fill-opacity="1.00" stroke="None">
<path d="
M 911.00 698.00 
C 897.32 695.67 881.50 697.67 867.00 697.00
C 867.00 682.33 867.00 667.67 867.00 653.00
C 863.92 655.16 865.68 670.57 866.00 675.00 C 866.33 679.43 863.15 693.64 866.78 697.22 C 870.41 700.80 883.45 696.68 889.00 698.00 C 894.55 699.32 905.00 697.01 911.00 698.00 Z"/>
</g>
<g fill="#ACC9DF" fill-opacity="1.00" stroke="None">
<path d="
M 1033.00 697.00 
C 1033.00 697.04 1034.00 697.00 1034.00 697.00
C 1035.32 682.45 1033.01 667.58 1034.00 653.00
C 1030.07 655.75 1033.80 669.77 1033.00 675.00 C 1032.20 680.23 1032.49 691.34 1033.00 697.00 Z"/>
</g>
<g fill="#ACC9DF" fill-opacity="1.00" stroke="None">
<path d="
M 1166.00 697.00 
C 1166.50 697.00 1167.00 697.00 1167.00 697.00
C 1167.53 691.13 1167.63 679.40 1167.00 674.00 C 1166.37 668.61 1169.89 655.72 1166.00 653.00
C 1166.98 667.58 1164.69 682.45 1166.00 697.00 Z"/>
</g>
<g fill="#004283" fill-opacity="1.00" stroke="None">
<path d="
M 427.00 775.00 
C 462.74 836.48 529.45 875.31 600.00 875.00 C 670.55 874.69 737.76 837.25 773.00 775.00
C 766.76 771.37 760.24 766.78 753.70 763.31 C 747.15 759.83 741.01 756.10 734.70 752.31 C 728.38 748.51 721.81 745.46 715.70 741.31 C 709.59 737.15 702.44 734.79 696.25 730.75 C 690.05 726.72 683.19 722.75 676.75 719.25 C 670.30 715.76 664.17 711.50 657.75 708.25 C 651.32 705.01 645.17 700.05 638.75 697.25 C 632.32 694.46 626.13 688.22 619.75 686.25 C 613.37 684.29 607.05 675.28 601.00 675.00
C 543.15 708.64 484.95 741.50 427.00 775.00 Z"/>
</g>
<g fill="#7DAACD" fill-opacity="1.00" stroke="None">
<path d="
M 955.00 742.00 
C 957.33 728.32 955.33 712.50 956.00 698.00
C 962.13 696.91 973.38 699.46 979.00 698.00 C 984.62 696.54 996.93 701.38 1000.00 697.00
C 985.00 697.00 970.00 697.00 955.00 697.00
C 955.00 712.00 955.00 727.00 955.00 742.00 Z"/>
</g>
<g fill="#699EC5" fill-opacity="1.00" stroke="None">
<path d="
M 1077.00 698.00 
C 1077.50 698.00 1078.00 698.00 1078.00 698.00
C 1074.11 693.96 1061.89 698.03 1056.00 697.00 C 1050.11 695.97 1040.25 697.00 1034.00 697.00
C 1034.00 697.00 1033.00 697.04 1033.00 697.00
C 1036.89 701.04 1049.11 696.97 1055.00 698.00 C 1060.89 699.03 1070.75 698.00 1077.00 698.00 Z"/>
</g>
<g fill="#699EC5" fill-opacity="1.00" stroke="None">
<path d="
M 1122.00 698.00 
C 1122.00 697.96 1123.00 698.00 1123.00 698.00
C 1129.43 698.00 1139.99 698.89 1146.00 698.00 C 1152.01 697.11 1163.14 701.03 1167.00 697.00
C 1167.00 697.00 1166.50 697.00 1166.00 697.00
C 1159.57 697.00 1149.02 696.11 1143.00 697.00 C 1136.98 697.89 1125.87 693.98 1122.00 698.00 Z"/>
</g>
<g fill="#347DB2" fill-opacity="1.00" stroke="None">
<path d="
M 1078.00 742.00 
C 1077.06 727.41 1079.26 712.56 1078.00 698.00
C 1078.00 698.00 1077.50 698.00 1077.00 698.00
C 1076.47 703.87 1076.37 715.60 1077.00 721.00 C 1077.63 726.40 1074.11 739.28 1078.00 742.00 Z"/>
</g>
<g fill="#347DB2" fill-opacity="1.00" stroke="None">
<path d="
M 1122.00 742.00 
C 1125.93 739.25 1122.20 725.23 1123.00 720.00 C 1123.80 714.77 1123.52 703.65 1123.00 698.00
C 1123.00 698.00 1122.00 697.96 1122.00 698.00
C 1120.68 712.55 1122.99 727.42 1122.00 742.00 Z"/>
</g>
<g fill="#004182" fill-opacity="1.00" stroke="None">
<path d="
M 15.00 1013.00 
C 38.19 1052.89 81.27 1068.46 119.08 1090.92 C 156.88 1113.39 196.56 1136.33 235.08 1157.92 C 273.59 1179.52 311.23 1204.03 350.23 1224.77 C 389.23 1245.51 426.69 1272.41 466.23 1291.77 C 505.77 1311.13 544.97 1350.00 591.00 1350.00
C 596.50 1350.00 603.33 1349.17 608.00 1351.00
L 609.00 1351.00
C 663.85 1340.28 713.03 1302.80 761.70 1275.69 C 810.36 1248.59 859.12 1219.78 906.70 1191.70 C 954.27 1163.61 1005.41 1137.77 1051.23 1108.23 C 1097.05 1078.69 1156.38 1062.24 1185.00 1013.00
C 1105.55 967.05 1026.51 919.44 946.00 876.00
C 946.76 881.71 936.54 888.14 934.92 893.92 C 933.30 899.70 925.91 905.35 922.92 910.92 C 919.92 916.49 914.83 921.58 910.77 926.77 C 906.71 931.96 901.99 937.60 897.75 942.75 C 893.51 947.90 887.79 952.31 883.25 957.25 C 878.70 962.19 874.04 966.51 869.08 971.08 C 864.12 975.65 858.69 980.19 853.25 984.25 C 847.81 988.30 842.78 993.26 837.23 997.23 C 831.68 1001.20 826.40 1004.80 820.70 1008.70 C 814.99 1012.60 808.76 1016.20 802.75 1019.75 C 796.73 1023.29 791.13 1026.66 784.70 1029.70 C 778.26 1032.73 771.86 1036.26 765.23 1039.23 C 758.60 1042.19 751.91 1045.28 745.03 1048.03 C 738.14 1050.77 731.43 1052.69 724.22 1055.22 C 717.02 1057.75 709.53 1059.57 702.02 1062.02 C 694.52 1064.48 686.04 1065.02 678.22 1067.22 C 670.40 1069.42 662.36 1069.53 654.07 1071.07 C 645.78 1072.62 636.80 1073.29 628.07 1074.07 C 619.35 1074.86 610.14 1075.05 601.00 1075.00 C 591.86 1074.95 581.77 1075.02 573.00 1074.00 C 564.23 1072.98 554.41 1073.53 546.07 1071.93 C 537.74 1070.32 530.10 1069.42 522.07 1067.93 C 514.04 1066.44 506.28 1064.37 498.68 1062.32 C 491.08 1060.27 483.50 1058.06 476.22 1055.78 C 468.94 1053.49 462.57 1051.05 455.69 1048.31 C 448.82 1045.56 441.81 1042.85 435.23 1039.77 C 428.65 1036.69 421.93 1033.76 415.70 1030.30 C 409.46 1026.85 403.77 1023.75 397.75 1020.25 C 391.72 1016.76 385.80 1012.76 380.08 1008.92 C 374.35 1005.09 368.76 1001.82 363.25 997.75 C 357.74 993.69 352.59 988.92 347.08 984.92 C 341.57 980.92 337.05 975.56 331.75 971.25 C 326.45 966.95 322.24 962.62 317.25 957.75 C 312.26 952.88 307.69 947.94 303.25 942.75 C 298.80 937.56 293.71 932.73 289.75 927.25 C 285.80 921.76 281.31 917.21 277.30 911.70 C 273.30 906.19 269.70 899.84 265.75 894.25 C 261.81 888.66 258.41 882.92 255.00 877.00
C 250.44 873.96 242.98 882.38 238.23 884.23 C 233.48 886.08 227.39 890.94 222.23 893.23 C 217.07 895.52 211.92 899.96 206.69 902.69 C 201.47 905.43 195.86 908.56 190.70 911.70 C 185.53 914.83 179.99 917.54 174.75 920.75 C 169.51 923.95 163.52 927.09 158.23 930.23 C 152.94 933.37 147.63 936.34 142.25 939.25 C 136.86 942.15 132.16 945.95 126.70 948.70 C 121.23 951.44 116.09 954.81 110.75 957.75 C 105.40 960.68 100.40 964.06 95.08 967.08 C 89.75 970.09 83.61 973.39 78.25 976.25 C 72.89 979.10 68.01 983.17 62.70 985.70 C 57.38 988.22 51.86 992.62 46.70 994.70 C 41.54 996.78 35.98 1002.99 31.08 1004.08 C 26.17 1005.16 19.30 1013.97 15.00 1013.00 Z"/>
</g>
<g fill="#000000" fill-opacity="0.00" stroke="None">
<path d="
M 0.00 1351.00 
L 591.00 1351.00
C 591.00 1350.50 591.00 1350.00 591.00 1350.00
C 544.97 1350.00 505.77 1311.13 466.23 1291.77 C 426.69 1272.41 389.23 1245.51 350.23 1224.77 C 311.23 1204.03 273.59 1179.52 235.08 1157.92 C 196.56 1136.33 156.88 1113.39 119.08 1090.92 C 81.27 1068.46 38.19 1052.89 15.00 1013.00
C 8.04 1001.03 2.80 987.39 0.00 974.00
L 0.00 1351.00 Z"/>
</g>
<g fill="#000000" fill-opacity="0.00" stroke="None">
<path d="
M 1185.00 1013.00 
C 1156.38 1062.24 1097.05 1078.69 1051.23 1108.23 C 1005.41 1137.77 954.27 1163.61 906.70 1191.70 C 859.12 1219.78 810.36 1248.59 761.70 1275.69 C 713.03 1302.80 663.85 1340.28 609.00 1351.00
L 1200.00 1351.00
L 1200.00 974.00
C 1197.19 987.36 1191.98 1000.98 1185.00 1013.00 Z"/>
</g>
<g fill="#004382" fill-opacity="0.26" stroke="None">
<path d="
M 591.00 1351.00 
L 608.00 1351.00
C 603.33 1349.17 596.50 1350.00 591.00 1350.00
C 591.00 1350.00 591.00 1350.50 591.00 1351.00 Z"/>
</g>
</svg>